<?xml version="1.0" encoding="UTF-8" standalone="no"?><!DOCTYPE svg PUBLIC "-//W3C//DTD SVG 1.1//EN" "http://www.w3.org/Graphics/SVG/1.1/DTD/svg11.dtd"><svg width="100%" height="100%" viewBox="0 0 493 343" version="1.1" xmlns="http://www.w3.org/2000/svg" xmlns:xlink="http://www.w3.org/1999/xlink" xml:space="preserve" xmlns:serif="http://www.serif.com/" style="fill-rule:evenodd;clip-rule:evenodd;stroke-linejoin:round;stroke-miterlimit:2;"><g id="Book-Half-Right" serif:id="Book Half Right"><path d="M0,342.221l0,-321.363c15.407,-6.303 31.243,-11.066 47.335,-14.437c62.658,-13.126 129.211,-5.16 189.554,15.108l0,320.692c-60.343,-20.268 -126.896,-28.234 -189.554,-15.108c-16.092,3.371 -31.928,8.134 -47.335,14.437" style="fill:#2a6bf2;"/></g><g id="Book-Half-Right1" serif:id="Book Half Right"><path d="M492.89,342.221l-0,-321.363c-15.408,-6.303 -31.243,-11.066 -47.336,-14.437c-62.658,-13.126 -129.21,-5.16 -189.554,15.108l0,320.692c60.344,-20.268 126.896,-28.234 189.554,-15.108c16.093,3.371 31.928,8.134 47.336,14.437" style="fill:#2a6bf2;"/></g></svg>