<?xml version="1.0" encoding="UTF-8" standalone="no"?><!DOCTYPE svg PUBLIC "-//W3C//DTD SVG 1.1//EN" "http://www.w3.org/Graphics/SVG/1.1/DTD/svg11.dtd"><svg width="100%" height="100%" viewBox="0 0 1477 651" version="1.1" xmlns="http://www.w3.org/2000/svg" xmlns:xlink="http://www.w3.org/1999/xlink" xml:space="preserve" xmlns:serif="http://www.serif.com/" style="fill-rule:evenodd;clip-rule:evenodd;stroke-linejoin:round;stroke-miterlimit:2;"><g id="logo-center"><g id="title"><path id="path108589" d="M143.165,590.324c0,-7.465 -1.377,-12.22 -4.132,-14.263c-2.755,-2.133 -9.242,-3.466 -19.462,-4l0.133,-6.798c5.688,0.267 11.597,0.489 17.729,0.667c6.221,0.089 12.575,0.133 19.062,0.133c9.953,-0 17.418,-0.044 22.395,-0.133c5.065,-0.178 9.775,-0.4 14.13,-0.667l-0,6.798c-9.598,0.356 -15.952,2.044 -19.062,5.066c-3.111,2.933 -4.666,10.886 -4.666,23.861l0,24.527l4.399,4.666l-0,5.198c-13.597,5.066 -26.482,8.843 -38.657,11.331c-12.086,2.488 -23.595,3.732 -34.525,3.732c-30.571,0 -54.965,-8.886 -73.182,-26.66c-18.218,-17.862 -27.327,-41.679 -27.327,-71.449c0,-13.863 2.355,-26.66 7.065,-38.391c4.799,-11.819 11.819,-22.394 21.061,-31.725c9.509,-9.509 20.618,-16.752 33.326,-21.728c12.708,-4.977 26.438,-7.465 41.19,-7.465c9.42,-0 19.595,1.2 30.525,3.599c11.02,2.311 23.239,5.91 36.658,10.797l4.399,37.724l-6.265,0.267c-2.755,-13.952 -9.509,-24.749 -20.262,-32.392c-10.753,-7.731 -24.572,-11.597 -41.456,-11.597c-22.661,-0 -41.101,8.176 -55.32,24.527c-14.219,16.263 -21.328,37.591 -21.328,63.985c-0,10.93 1.599,21.728 4.799,32.392c3.199,10.575 7.598,19.595 13.196,27.06c7.732,10.575 16.574,18.528 26.527,23.861c9.953,5.243 20.84,7.864 32.659,7.864c7.109,0 13.73,-0.844 19.862,-2.532c6.22,-1.689 11.73,-4.133 16.529,-7.332l0,-40.923Z" style="fill:#d9d9d9;fill-rule:nonzero;"/><path id="path108591" d="M235.143,582.726c-0,17.595 3.732,31.903 11.197,42.922c7.554,11.02 17.24,16.53 29.06,16.53c11.019,-0 19.906,-4.977 26.66,-14.93c6.754,-10.042 10.131,-23.461 10.131,-40.257c-0,-17.596 -3.688,-31.637 -11.064,-42.123c-7.376,-10.486 -17.152,-15.729 -29.327,-15.729c-10.575,-0 -19.328,4.976 -26.26,14.929c-6.931,9.953 -10.397,22.839 -10.397,38.658Zm-24.794,3.999c-0,-18.485 6.043,-33.859 18.129,-46.123c12.175,-12.352 27.415,-18.528 45.722,-18.528c18.307,-0 33.503,5.909 45.589,17.729c12.086,11.73 18.129,26.393 18.129,43.989c-0,18.395 -6.31,34.081 -18.929,47.055c-12.53,12.886 -27.904,19.329 -46.122,19.329c-17.418,-0 -32.214,-6.132 -44.389,-18.396c-12.086,-12.352 -18.129,-27.371 -18.129,-45.055Z" style="fill:#d9d9d9;fill-rule:nonzero;"/><path id="path108593" d="M387.106,582.726c-0,17.595 3.732,31.903 11.197,42.922c7.554,11.02 17.24,16.53 29.06,16.53c11.019,-0 19.906,-4.977 26.66,-14.93c6.754,-10.042 10.131,-23.461 10.131,-40.257c-0,-17.596 -3.688,-31.637 -11.064,-42.123c-7.376,-10.486 -17.152,-15.729 -29.327,-15.729c-10.575,-0 -19.328,4.976 -26.26,14.929c-6.932,9.953 -10.397,22.839 -10.397,38.658Zm-24.794,3.999c-0,-18.485 6.043,-33.859 18.129,-46.123c12.174,-12.352 27.415,-18.528 45.722,-18.528c18.306,-0 33.503,5.909 45.589,17.729c12.086,11.73 18.129,26.393 18.129,43.989c-0,18.395 -6.31,34.081 -18.929,47.055c-12.53,12.886 -27.904,19.329 -46.122,19.329c-17.418,-0 -32.215,-6.132 -44.389,-18.396c-12.086,-12.352 -18.129,-27.371 -18.129,-45.055Z" style="fill:#d9d9d9;fill-rule:nonzero;"/><path id="path108595" d="M607.052,562.997c-0,-10.575 -2.399,-18.44 -7.198,-23.594c-4.799,-5.155 -12.131,-7.732 -21.995,-7.732c-11.908,0 -21.728,4.533 -29.459,13.597c-7.643,9.064 -11.464,20.706 -11.464,34.925c-0,15.463 4.088,28.348 12.263,38.657c8.265,10.309 18.485,15.463 30.66,15.463c9.686,-0 16.618,-2.266 20.795,-6.798c4.265,-4.621 6.398,-12.175 6.398,-22.662l-0,-41.856Zm-0.533,-36.258l-0,-45.055c-0,-8.709 -1.111,-14.353 -3.333,-16.93c-2.133,-2.666 -6.354,-5.021 -12.663,-7.065l-0,-3.865c5.776,-1.778 11.241,-3.777 16.396,-5.999c5.243,-2.222 10.219,-4.665 14.929,-7.331l7.065,-0l0,180.089c0,6.221 0.622,10.042 1.866,11.464c1.245,1.333 3.733,1.999 7.465,1.999c1.244,0 3.555,-0.133 6.932,-0.4c1.066,-0.088 1.866,-0.133 2.399,-0.133l0,5.999c-11.641,2.221 -22.838,5.287 -33.591,9.197c-2.133,0.711 -3.333,1.067 -3.6,1.067c-0.888,-0 -1.555,-0.445 -1.999,-1.333c-0.444,-0.889 -0.667,-2.222 -0.667,-3.999l0,-1.733l0.8,-12.797l-1.466,0c-7.021,6.932 -13.952,11.997 -20.795,15.196c-6.843,3.111 -14.085,4.666 -21.728,4.666c-14.574,-0 -26.66,-5.421 -36.258,-16.263c-9.509,-10.842 -14.263,-24.616 -14.263,-41.323c0,-19.729 6.754,-36.213 20.262,-49.455c13.508,-13.241 30.526,-19.862 51.054,-19.862c3.377,0 6.843,0.356 10.397,1.067c3.555,0.622 7.154,1.555 10.798,2.799Z" style="fill:#d9d9d9;fill-rule:nonzero;"/><path id="path108597" d="M669.037,640.578l-5.466,-40.39l6.532,-0c3.555,12.619 8.976,22.439 16.263,29.459c7.287,6.932 15.685,10.398 25.194,10.398c11.019,-0 19.95,-3.333 26.793,-9.998c6.932,-6.665 10.398,-15.374 10.398,-26.127c-0,-13.774 -11.286,-27.193 -33.859,-40.256c-2.843,-1.689 -5.021,-2.978 -6.531,-3.866c-15.286,-9.065 -25.683,-17.463 -31.193,-25.194c-5.421,-7.82 -8.131,-17.374 -8.131,-28.66c-0,-16.085 5.243,-28.926 15.729,-38.524c10.487,-9.597 24.528,-14.396 42.123,-14.396c4.088,-0 8.843,0.311 14.264,0.933c5.42,0.622 11.686,1.6 18.795,2.933l3.999,34.391l-6.265,0c-1.511,-9.064 -5.332,-16.218 -11.464,-21.461c-6.043,-5.243 -13.597,-7.865 -22.661,-7.865c-9.242,0 -16.929,2.977 -23.061,8.931c-6.043,5.954 -9.065,13.375 -9.065,22.261c0,9.331 2.355,17.196 7.065,23.595c4.799,6.398 14.263,13.374 28.393,20.928c1.244,0.622 3.155,1.599 5.732,2.932c12.086,6.31 20.795,12.131 26.127,17.463c4.71,4.71 8.265,10.086 10.664,16.129c2.4,5.954 3.599,12.442 3.599,19.462c0,16.618 -5.909,30.259 -17.729,40.924c-11.73,10.575 -26.926,15.862 -45.588,15.862c-7.643,0 -14.886,-0.844 -21.728,-2.532c-6.843,-1.689 -13.153,-4.133 -18.929,-7.332Z" style="fill:#d9d9d9;fill-rule:nonzero;"/><path id="path108599" d="M871.787,627.115l3.866,4.665c-7.554,6.665 -14.13,11.464 -19.728,14.397c-5.599,2.843 -10.931,4.265 -15.997,4.265c-9.597,0 -16.307,-2.666 -20.128,-7.998c-3.732,-5.332 -5.599,-15.507 -5.599,-30.526l0,-71.049l-17.995,0l-0,-5.199c7.82,-4.887 14.796,-10.486 20.928,-16.796c6.221,-6.398 11.331,-13.241 15.33,-20.528l3.065,0l0,28.393l40.924,0l-0,14.13l-40.924,0l0,66.917c0,10.22 1.289,17.329 3.866,21.328c2.577,3.999 6.932,5.999 13.064,5.999c2.932,-0 5.998,-0.667 9.197,-2c3.289,-1.333 6.665,-3.332 10.131,-5.998Z" style="fill:#d9d9d9;fill-rule:nonzero;"/><path id="path108601" d="M981.894,650.442l-0,-22.394c-9.509,7.198 -18.529,12.708 -27.06,16.529c-8.532,3.733 -16.263,5.599 -23.195,5.599c-9.153,-0 -15.996,-2.933 -20.528,-8.798c-4.532,-5.865 -6.798,-14.708 -6.798,-26.527l-0,-55.586c-0,-11.109 -1.2,-18.085 -3.599,-20.929c-2.311,-2.843 -6.754,-4.798 -13.33,-5.865l-0,-4.932l31.725,-2.133l6.265,0l0,72.782c0,14.041 1.644,23.817 4.932,29.327c3.377,5.421 9.109,8.131 17.196,8.131c4.977,-0 10.353,-1.422 16.13,-4.266c5.865,-2.932 11.686,-7.065 17.462,-12.397l-0,-66.383c-0,-5.599 -1.377,-9.598 -4.132,-11.998c-2.755,-2.488 -8.843,-4.843 -18.263,-7.064l0,-5.999l37.858,-2.133l6.931,0l0,98.509c0,5.866 0.534,9.465 1.6,10.798c1.155,1.333 3.421,1.999 6.798,1.999l9.331,0l0,5.199l-39.323,8.531Z" style="fill:#d9d9d9;fill-rule:nonzero;"/><path id="path108603" d="M1134.92,562.997c0,-10.575 -2.399,-18.44 -7.198,-23.594c-4.799,-5.155 -12.131,-7.732 -21.995,-7.732c-11.908,0 -21.728,4.533 -29.459,13.597c-7.643,9.064 -11.464,20.706 -11.464,34.925c-0,15.463 4.088,28.348 12.264,38.657c8.264,10.309 18.484,15.463 30.659,15.463c9.686,-0 16.618,-2.266 20.795,-6.798c4.265,-4.621 6.398,-12.175 6.398,-22.662l0,-41.856Zm-0.533,-36.258l-0,-45.055c-0,-8.709 -1.111,-14.353 -3.333,-16.93c-2.132,-2.666 -6.354,-5.021 -12.663,-7.065l-0,-3.865c5.776,-1.778 11.241,-3.777 16.396,-5.999c5.243,-2.222 10.219,-4.665 14.929,-7.331l7.065,-0l0,180.089c0,6.221 0.622,10.042 1.867,11.464c1.244,1.333 3.732,1.999 7.464,1.999c1.245,0 3.555,-0.133 6.932,-0.4c1.066,-0.088 1.866,-0.133 2.399,-0.133l0,5.999c-11.641,2.221 -22.838,5.287 -33.591,9.197c-2.133,0.711 -3.333,1.067 -3.599,1.067c-0.889,-0 -1.556,-0.445 -2,-1.333c-0.444,-0.889 -0.666,-2.222 -0.666,-3.999l-0,-1.733l0.799,-12.797l-1.466,0c-7.02,6.932 -13.952,11.997 -20.795,15.196c-6.843,3.111 -14.085,4.666 -21.728,4.666c-14.574,-0 -26.66,-5.421 -36.258,-16.263c-9.509,-10.842 -14.263,-24.616 -14.263,-41.323c0,-19.729 6.754,-36.213 20.262,-49.455c13.508,-13.241 30.526,-19.862 51.054,-19.862c3.377,0 6.843,0.356 10.397,1.067c3.555,0.622 7.154,1.555 10.798,2.799Z" style="fill:#d9d9d9;fill-rule:nonzero;"/><path id="path108605" d="M1189.98,647.11l0,-6.799c7.998,-0.177 13.064,-0.977 15.197,-2.399c2.221,-1.511 3.332,-5.554 3.332,-12.13l0,-66.917c0,-6.665 -1.155,-11.331 -3.466,-13.997c-2.31,-2.755 -6.531,-5.065 -12.663,-6.932l-0,-3.332c5.865,-1.777 11.375,-3.777 16.529,-5.999c5.243,-2.221 10.175,-4.665 14.796,-7.331l6.532,-0l0,105.307c0,5.866 0.933,9.598 2.799,11.198c1.867,1.511 7.11,2.444 15.73,2.799l-0,6.532c-6.665,-0.267 -12.93,-0.445 -18.795,-0.533c-5.777,-0.178 -11.02,-0.267 -15.73,-0.267c-4.621,0 -8.976,0.089 -13.063,0.267c-3.999,0.088 -7.732,0.266 -11.198,0.533Zm15.463,-180.756c0,-3.821 1.244,-6.976 3.733,-9.464c2.577,-2.578 5.776,-3.866 9.597,-3.866c3.822,-0 7.021,1.288 9.598,3.866c2.577,2.577 3.866,5.732 3.866,9.464c-0,3.821 -1.333,7.065 -3.999,9.731c-2.578,2.666 -5.732,3.999 -9.465,3.999c-3.732,-0 -6.887,-1.289 -9.464,-3.866c-2.577,-2.666 -3.866,-5.954 -3.866,-9.864Z" style="fill:#d9d9d9;fill-rule:nonzero;"/><path id="path108607" d="M1292.22,561.397l45.322,0c4.532,0 7.332,-0.488 8.398,-1.466c1.155,-0.977 1.733,-2.933 1.733,-5.865c0,-7.021 -2.222,-12.753 -6.665,-17.196c-4.443,-4.443 -10.131,-6.665 -17.062,-6.665c-7.91,0 -14.708,2.799 -20.395,8.398c-5.688,5.599 -9.465,13.197 -11.331,22.794Zm75.848,53.187l4.132,4.399c-7.998,10.842 -16.307,18.796 -24.927,23.861c-8.531,5.066 -17.951,7.598 -28.26,7.598c-14.574,0 -26.615,-5.82 -36.124,-17.462c-9.42,-11.642 -14.13,-26.394 -14.13,-44.256c0,-18.484 5.643,-34.214 16.929,-47.188c11.286,-12.975 24.661,-19.462 40.124,-19.462c12.974,-0 23.816,4.043 32.525,12.13c8.709,7.998 13.064,17.596 13.064,28.793c-0,2.933 -0.622,4.932 -1.867,5.999c-1.244,0.977 -4.087,1.466 -8.531,1.466l-69.849,-0c-0,0.089 -0.045,0.355 -0.134,0.8c-0.267,4.088 -0.4,7.153 -0.4,9.197c0,15.463 3.733,28.082 11.197,37.858c7.465,9.775 16.93,14.663 28.394,14.663c6.042,-0 12.174,-1.511 18.395,-4.532c6.31,-3.111 12.797,-7.732 19.462,-13.864l0,0Z" style="fill:#d9d9d9;fill-rule:nonzero;"/><path id="path108609" d="M1396.99,641.111l-3.199,-31.992l5.466,-1.066c2.488,10.841 6.62,19.195 12.396,25.06c5.777,5.865 12.708,8.798 20.795,8.798c6.754,0 12.175,-1.955 16.263,-5.865c4.088,-3.91 6.132,-9.065 6.132,-15.463c-0,-8.442 -8.087,-16.663 -24.261,-24.661l-0.266,-0.133c-13.242,-6.487 -22.306,-12.441 -27.194,-17.862c-4.799,-5.421 -7.198,-11.864 -7.198,-19.329c0,-11.108 3.644,-19.951 10.931,-26.527c7.376,-6.665 17.284,-9.997 29.726,-9.997c5.865,-0 11.375,0.577 16.529,1.733c5.243,1.066 10.22,2.799 14.93,5.198c0.444,3.822 0.755,7.421 0.933,10.798c0.266,3.377 0.4,6.576 0.4,9.597c-0,2.044 -0.045,3.555 -0.133,4.533c-0,0.977 -0.045,1.91 -0.134,2.799l-5.199,-0c-1.51,-8.531 -4.754,-15.196 -9.731,-19.995c-4.976,-4.888 -11.108,-7.332 -18.395,-7.332c-6.487,0 -11.73,1.733 -15.73,5.199c-3.91,3.466 -5.865,8.042 -5.865,13.73c0,8.976 8.798,17.551 26.394,25.727c2.932,1.333 5.154,2.399 6.665,3.199c10.486,4.888 17.907,10.087 22.261,15.596c4.443,5.421 6.665,11.953 6.665,19.596c0,10.486 -4.488,19.462 -13.463,26.926c-8.887,7.376 -19.862,11.064 -32.926,11.064c-5.065,0 -10.308,-0.799 -15.729,-2.399c-5.332,-1.511 -11.02,-3.821 -17.063,-6.932l0,0Z" style="fill:#d9d9d9;fill-rule:nonzero;"/></g></g><g id="Book-Half-Right" serif:id="Book Half Right"><path d="M491.352,342.221l0,-321.363c15.408,-6.303 31.243,-11.066 47.335,-14.437c62.659,-13.126 129.211,-5.16 189.555,15.108l-0,320.692c-60.344,-20.268 -126.896,-28.234 -189.555,-15.108c-16.092,3.371 -31.927,8.134 -47.335,14.437" style="fill:#2a6bf2;"/></g><g id="Book-Half-Right1" serif:id="Book Half Right"><path d="M984.242,342.221l-0,-321.363c-15.408,-6.303 -31.243,-11.066 -47.335,-14.437c-62.659,-13.126 -129.211,-5.16 -189.555,15.108l0,320.692c60.344,-20.268 126.896,-28.234 189.555,-15.108c16.092,3.371 31.927,8.134 47.335,14.437" style="fill:#2a6bf2;"/></g></svg>