<?xml version="1.0" encoding="UTF-8" standalone="no"?><!DOCTYPE svg PUBLIC "-//W3C//DTD SVG 1.1//EN" "http://www.w3.org/Graphics/SVG/1.1/DTD/svg11.dtd"><svg width="100%" height="100%" viewBox="0 0 2054 343" version="1.1" xmlns="http://www.w3.org/2000/svg" xmlns:xlink="http://www.w3.org/1999/xlink" xml:space="preserve" xmlns:serif="http://www.serif.com/" style="fill-rule:evenodd;clip-rule:evenodd;stroke-linejoin:round;stroke-miterlimit:2;"><g id="logo-center"><g id="title"><path id="path108589" d="M720.563,215.966c0,-7.465 -1.377,-12.219 -4.132,-14.263c-2.755,-2.133 -9.242,-3.466 -19.462,-3.999l0.133,-6.798c5.687,0.266 11.597,0.488 17.729,0.666c6.221,0.089 12.575,0.133 19.062,0.133c9.953,0 17.418,-0.044 22.394,-0.133c5.066,-0.178 9.776,-0.4 14.13,-0.666l0,6.798c-9.597,0.355 -15.951,2.044 -19.062,5.065c-3.11,2.933 -4.665,10.887 -4.665,23.861l-0,24.527l4.399,4.666l-0,5.199c-13.597,5.065 -26.483,8.842 -38.657,11.33c-12.086,2.489 -23.595,3.733 -34.525,3.733c-30.571,-0 -54.965,-8.887 -73.183,-26.66c-18.217,-17.863 -27.326,-41.679 -27.326,-71.45c-0,-13.863 2.355,-26.66 7.065,-38.39c4.799,-11.82 11.819,-22.395 21.061,-31.726c9.509,-9.509 20.617,-16.751 33.325,-21.728c12.708,-4.976 26.438,-7.465 41.19,-7.465c9.42,0 19.596,1.2 30.526,3.599c11.02,2.311 23.239,5.91 36.658,10.798l4.399,37.724l-6.265,0.266c-2.755,-13.952 -9.509,-24.749 -20.262,-32.392c-10.753,-7.731 -24.572,-11.597 -41.456,-11.597c-22.662,0 -41.102,8.176 -55.32,24.528c-14.219,16.262 -21.328,37.59 -21.328,63.984c-0,10.931 1.599,21.728 4.798,32.392c3.2,10.575 7.599,19.595 13.197,27.06c7.732,10.575 16.574,18.529 26.527,23.861c9.953,5.243 20.839,7.865 32.659,7.865c7.109,-0 13.73,-0.845 19.862,-2.533c6.22,-1.689 11.73,-4.132 16.529,-7.332l0,-40.923Z" style="fill:#d9d9d9;fill-rule:nonzero;"/><path id="path108591" d="M812.541,208.368c-0,17.596 3.732,31.903 11.197,42.923c7.554,11.019 17.24,16.529 29.059,16.529c11.02,0 19.907,-4.976 26.661,-14.93c6.753,-10.042 10.13,-23.461 10.13,-40.256c0,-17.596 -3.688,-31.637 -11.064,-42.123c-7.375,-10.487 -17.151,-15.73 -29.326,-15.73c-10.575,0 -19.328,4.977 -26.26,14.93c-6.932,9.953 -10.397,22.839 -10.397,38.657Zm-24.794,3.999c-0,-18.484 6.043,-33.858 18.129,-46.122c12.174,-12.353 27.415,-18.529 45.722,-18.529c18.306,0 33.503,5.91 45.589,17.729c12.086,11.731 18.128,26.394 18.128,43.989c0,18.396 -6.309,34.081 -18.928,47.056c-12.53,12.885 -27.905,19.328 -46.122,19.328c-17.418,0 -32.215,-6.132 -44.389,-18.395c-12.086,-12.353 -18.129,-27.371 -18.129,-45.056Z" style="fill:#d9d9d9;fill-rule:nonzero;"/><path id="path108593" d="M964.503,208.368c0,17.596 3.733,31.903 11.198,42.923c7.553,11.019 17.24,16.529 29.059,16.529c11.02,0 19.907,-4.976 26.66,-14.93c6.754,-10.042 10.131,-23.461 10.131,-40.256c0,-17.596 -3.688,-31.637 -11.064,-42.123c-7.376,-10.487 -17.151,-15.73 -29.326,-15.73c-10.575,0 -19.328,4.977 -26.26,14.93c-6.932,9.953 -10.398,22.839 -10.398,38.657Zm-24.793,3.999c-0,-18.484 6.043,-33.858 18.128,-46.122c12.175,-12.353 27.416,-18.529 45.723,-18.529c18.306,0 33.503,5.91 45.588,17.729c12.086,11.731 18.129,26.394 18.129,43.989c0,18.396 -6.309,34.081 -18.928,47.056c-12.531,12.885 -27.905,19.328 -46.122,19.328c-17.418,0 -32.215,-6.132 -44.39,-18.395c-12.085,-12.353 -18.128,-27.371 -18.128,-45.056Z" style="fill:#d9d9d9;fill-rule:nonzero;"/><path id="path108595" d="M1184.45,188.639c-0,-10.575 -2.4,-18.44 -7.198,-23.594c-4.799,-5.154 -12.131,-7.731 -21.995,-7.731c-11.908,-0 -21.728,4.532 -29.46,13.596c-7.642,9.065 -11.463,20.706 -11.463,34.925c-0,15.463 4.087,28.349 12.263,38.657c8.265,10.309 18.485,15.463 30.659,15.463c9.687,0 16.619,-2.266 20.795,-6.798c4.266,-4.621 6.399,-12.175 6.399,-22.661l-0,-41.857Zm-0.533,-36.257l-0,-45.056c-0,-8.709 -1.111,-14.352 -3.333,-16.929c-2.133,-2.666 -6.354,-5.021 -12.664,-7.065l0,-3.866c5.777,-1.777 11.242,-3.777 16.396,-5.998c5.244,-2.222 10.22,-4.666 14.93,-7.332l7.065,0l0,180.089c0,6.221 0.622,10.042 1.866,11.464c1.244,1.333 3.733,2 7.465,2c1.244,-0 3.555,-0.134 6.932,-0.4c1.066,-0.089 1.866,-0.133 2.399,-0.133l0,5.998c-11.641,2.222 -22.839,5.288 -33.592,9.198c-2.132,0.711 -3.332,1.066 -3.599,1.066c-0.888,0 -1.555,-0.444 -1.999,-1.333c-0.445,-0.888 -0.667,-2.221 -0.667,-3.999l0,-1.733l0.8,-12.797l-1.466,0c-7.021,6.932 -13.952,11.997 -20.795,15.197c-6.843,3.11 -14.086,4.665 -21.728,4.665c-14.574,0 -26.66,-5.421 -36.258,-16.262c-9.509,-10.842 -14.263,-24.617 -14.263,-41.324c-0,-19.728 6.754,-36.213 20.262,-49.454c13.507,-13.242 30.525,-19.862 51.054,-19.862c3.377,-0 6.843,0.355 10.397,1.066c3.555,0.622 7.154,1.555 10.798,2.8Z" style="fill:#d9d9d9;fill-rule:nonzero;"/><path id="path108597" d="M1246.43,266.22l-5.466,-40.39l6.532,0c3.555,12.619 8.976,22.439 16.263,29.46c7.287,6.931 15.685,10.397 25.194,10.397c11.019,0 19.95,-3.332 26.793,-9.997c6.932,-6.665 10.398,-15.374 10.398,-26.127c-0,-13.775 -11.287,-27.194 -33.859,-40.257c-2.844,-1.689 -5.021,-2.977 -6.532,-3.866c-15.285,-9.064 -25.682,-17.462 -31.192,-25.194c-5.421,-7.82 -8.131,-17.373 -8.131,-28.659c-0,-16.085 5.243,-28.927 15.729,-38.524c10.486,-9.598 24.527,-14.397 42.123,-14.397c4.088,0 8.842,0.311 14.263,0.933c5.421,0.622 11.686,1.6 18.796,2.933l3.999,34.392l-6.265,-0c-1.511,-9.065 -5.332,-16.219 -11.464,-21.462c-6.043,-5.243 -13.597,-7.865 -22.661,-7.865c-9.243,0 -16.93,2.977 -23.061,8.932c-6.043,5.954 -9.065,13.374 -9.065,22.261c0,9.331 2.355,17.196 7.065,23.594c4.799,6.398 14.263,13.375 28.393,20.928c1.244,0.622 3.155,1.6 5.732,2.933c12.086,6.309 20.795,12.13 26.127,17.462c4.71,4.71 8.265,10.087 10.664,16.13c2.4,5.954 3.599,12.441 3.599,19.462c0,16.618 -5.909,30.259 -17.729,40.923c-11.73,10.575 -26.927,15.863 -45.589,15.863c-7.642,-0 -14.885,-0.845 -21.728,-2.533c-6.842,-1.688 -13.152,-4.132 -18.928,-7.332Z" style="fill:#d9d9d9;fill-rule:nonzero;"/><path id="path108599" d="M1449.18,252.757l3.866,4.666c-7.554,6.665 -14.13,11.463 -19.729,14.396c-5.598,2.844 -10.93,4.266 -15.996,4.266c-9.597,-0 -16.307,-2.666 -20.128,-7.998c-3.733,-5.332 -5.599,-15.508 -5.599,-30.526l0,-71.05l-17.995,0l-0,-5.198c7.82,-4.888 14.796,-10.487 20.928,-16.796c6.221,-6.399 11.33,-13.241 15.329,-20.528l3.066,-0l0,28.393l40.924,-0l-0,14.129l-40.924,0l0,66.917c0,10.22 1.289,17.33 3.866,21.329c2.577,3.999 6.932,5.998 13.064,5.998c2.932,0 5.998,-0.666 9.197,-1.999c3.288,-1.333 6.665,-3.333 10.131,-5.999Z" style="fill:#d9d9d9;fill-rule:nonzero;"/><path id="path108601" d="M1559.29,276.085l-0,-22.395c-9.509,7.198 -18.529,12.708 -27.06,16.53c-8.532,3.732 -16.263,5.598 -23.195,5.598c-9.153,0 -15.996,-2.932 -20.528,-8.798c-4.532,-5.865 -6.798,-14.707 -6.798,-26.527l-0,-55.586c-0,-11.108 -1.2,-18.084 -3.6,-20.928c-2.31,-2.844 -6.754,-4.799 -13.33,-5.865l0,-4.933l31.726,-2.132l6.265,-0l0,72.782c0,14.041 1.644,23.816 4.932,29.326c3.377,5.421 9.109,8.131 17.196,8.131c4.977,0 10.353,-1.422 16.129,-4.265c5.866,-2.933 11.686,-7.065 17.463,-12.397l-0,-66.384c-0,-5.599 -1.378,-9.598 -4.133,-11.997c-2.754,-2.488 -8.842,-4.843 -18.262,-7.065l0,-5.999l37.858,-2.132l6.931,-0l0,98.509c0,5.865 0.533,9.464 1.6,10.797c1.155,1.333 3.421,2 6.798,2l9.331,-0l0,5.198l-39.323,8.532Z" style="fill:#d9d9d9;fill-rule:nonzero;"/><path id="path108603" d="M1712.32,188.639c-0,-10.575 -2.4,-18.44 -7.198,-23.594c-4.799,-5.154 -12.131,-7.731 -21.995,-7.731c-11.908,-0 -21.728,4.532 -29.459,13.596c-7.643,9.065 -11.464,20.706 -11.464,34.925c-0,15.463 4.088,28.349 12.263,38.657c8.265,10.309 18.485,15.463 30.66,15.463c9.686,0 16.618,-2.266 20.794,-6.798c4.266,-4.621 6.399,-12.175 6.399,-22.661l-0,-41.857Zm-0.533,-36.257l-0,-45.056c-0,-8.709 -1.111,-14.352 -3.333,-16.929c-2.133,-2.666 -6.354,-5.021 -12.663,-7.065l-0,-3.866c5.776,-1.777 11.241,-3.777 16.396,-5.998c5.243,-2.222 10.219,-4.666 14.929,-7.332l7.065,0l0,180.089c0,6.221 0.622,10.042 1.866,11.464c1.245,1.333 3.733,2 7.465,2c1.244,-0 3.555,-0.134 6.932,-0.4c1.066,-0.089 1.866,-0.133 2.399,-0.133l0,5.998c-11.641,2.222 -22.839,5.288 -33.591,9.198c-2.133,0.711 -3.333,1.066 -3.6,1.066c-0.888,0 -1.555,-0.444 -1.999,-1.333c-0.444,-0.888 -0.667,-2.221 -0.667,-3.999l0,-1.733l0.8,-12.797l-1.466,0c-7.021,6.932 -13.952,11.997 -20.795,15.197c-6.843,3.11 -14.085,4.665 -21.728,4.665c-14.574,0 -26.66,-5.421 -36.258,-16.262c-9.509,-10.842 -14.263,-24.617 -14.263,-41.324c-0,-19.728 6.754,-36.213 20.262,-49.454c13.507,-13.242 30.526,-19.862 51.054,-19.862c3.377,-0 6.843,0.355 10.397,1.066c3.555,0.622 7.154,1.555 10.798,2.8Z" style="fill:#d9d9d9;fill-rule:nonzero;"/><path id="path108605" d="M1767.37,272.752l0,-6.798c7.998,-0.178 13.064,-0.978 15.196,-2.4c2.222,-1.51 3.333,-5.554 3.333,-12.13l-0,-66.917c-0,-6.665 -1.155,-11.33 -3.466,-13.996c-2.31,-2.755 -6.532,-5.066 -12.663,-6.932l-0,-3.333c5.865,-1.777 11.375,-3.776 16.529,-5.998c5.243,-2.222 10.175,-4.666 14.796,-7.332l6.532,0l-0,105.308c-0,5.865 0.933,9.598 2.799,11.197c1.866,1.511 7.11,2.444 15.73,2.799l-0,6.532c-6.665,-0.266 -12.93,-0.444 -18.796,-0.533c-5.776,-0.178 -11.019,-0.267 -15.729,-0.267c-4.621,0 -8.976,0.089 -13.064,0.267c-3.999,0.089 -7.731,0.267 -11.197,0.533Zm15.463,-180.756c-0,-3.821 1.244,-6.976 3.732,-9.464c2.578,-2.577 5.777,-3.866 9.598,-3.866c3.821,0 7.021,1.289 9.598,3.866c2.577,2.577 3.865,5.732 3.865,9.464c0,3.822 -1.333,7.065 -3.999,9.731c-2.577,2.666 -5.732,3.999 -9.464,3.999c-3.732,0 -6.887,-1.288 -9.464,-3.865c-2.577,-2.666 -3.866,-5.954 -3.866,-9.865Z" style="fill:#d9d9d9;fill-rule:nonzero;"/><path id="path108607" d="M1869.62,187.04l45.322,-0c4.532,-0 7.332,-0.489 8.398,-1.466c1.155,-0.978 1.733,-2.933 1.733,-5.866c-0,-7.02 -2.222,-12.752 -6.665,-17.196c-4.443,-4.443 -10.131,-6.665 -17.063,-6.665c-7.909,0 -14.707,2.8 -20.395,8.398c-5.687,5.599 -9.464,13.197 -11.33,22.795Zm75.848,53.187l4.132,4.399c-7.998,10.842 -16.307,18.795 -24.927,23.861c-8.531,5.065 -17.951,7.598 -28.26,7.598c-14.574,-0 -26.615,-5.821 -36.124,-17.463c-9.42,-11.641 -14.13,-26.393 -14.13,-44.256c-0,-18.484 5.643,-34.213 16.929,-47.188c11.286,-12.975 24.661,-19.462 40.124,-19.462c12.974,0 23.816,4.044 32.525,12.13c8.709,7.999 13.063,17.596 13.063,28.793c0,2.933 -0.622,4.933 -1.866,5.999c-1.244,0.977 -4.088,1.466 -8.531,1.466l-69.85,0c0,0.089 -0.044,0.356 -0.133,0.8c-0.267,4.088 -0.4,7.154 -0.4,9.198c0,15.463 3.732,28.082 11.197,37.857c7.465,9.776 16.929,14.663 28.393,14.663c6.043,0 12.175,-1.51 18.396,-4.532c6.309,-3.11 12.797,-7.731 19.462,-13.863l-0,-0Z" style="fill:#d9d9d9;fill-rule:nonzero;"/><path id="path108609" d="M1974.39,266.754l-3.199,-31.993l5.465,-1.066c2.489,10.842 6.621,19.195 12.397,25.061c5.777,5.865 12.708,8.797 20.795,8.797c6.754,0 12.175,-1.955 16.263,-5.865c4.088,-3.91 6.132,-9.064 6.132,-15.463c-0,-8.442 -8.087,-16.662 -24.261,-24.66l-0.267,-0.134c-13.241,-6.487 -22.305,-12.441 -27.193,-17.862c-4.799,-5.421 -7.198,-11.864 -7.198,-19.329c-0,-11.108 3.643,-19.95 10.93,-26.526c7.376,-6.665 17.285,-9.998 29.727,-9.998c5.865,0 11.375,0.578 16.529,1.733c5.243,1.066 10.22,2.799 14.93,5.199c0.444,3.821 0.755,7.42 0.933,10.797c0.266,3.377 0.4,6.576 0.4,9.598c-0,2.044 -0.045,3.554 -0.134,4.532c0,0.977 -0.044,1.911 -0.133,2.799l-5.199,0c-1.51,-8.531 -4.754,-15.196 -9.731,-19.995c-4.976,-4.888 -11.108,-7.331 -18.395,-7.331c-6.488,-0 -11.731,1.733 -15.73,5.198c-3.91,3.466 -5.865,8.043 -5.865,13.73c0,8.976 8.798,17.552 26.394,25.727c2.932,1.333 5.154,2.4 6.665,3.2c10.486,4.887 17.906,10.086 22.261,15.596c4.443,5.421 6.665,11.952 6.665,19.595c-0,10.486 -4.488,19.462 -13.463,26.927c-8.887,7.376 -19.862,11.064 -32.926,11.064c-5.065,-0 -10.308,-0.8 -15.729,-2.4c-5.332,-1.51 -11.02,-3.821 -17.063,-6.931l0,-0Z" style="fill:#d9d9d9;fill-rule:nonzero;"/></g></g><g id="Book"><g id="Book-Half-Left" serif:id="Book Half Left"><path d="M0,342.221l0,-321.363c15.407,-6.303 31.243,-11.066 47.335,-14.437c62.658,-13.126 129.211,-5.16 189.554,15.108l0,320.692c-60.343,-20.268 -126.896,-28.234 -189.554,-15.108c-16.092,3.371 -31.928,8.134 -47.335,14.437" style="fill:#2a6bf2;"/></g><g id="Book-Half-Right" serif:id="Book Half Right"><path d="M492.89,342.221l-0,-321.363c-15.408,-6.303 -31.243,-11.066 -47.336,-14.437c-62.658,-13.126 -129.21,-5.16 -189.554,15.108l0,320.692c60.344,-20.268 126.896,-28.234 189.554,-15.108c16.093,3.371 31.928,8.134 47.336,14.437" style="fill:#2a6bf2;"/></g></g></svg>